<svg width="13" height="13" viewBox="0 0 13 13" fill="none" xmlns="http://www.w3.org/2000/svg">
<g clip-path="url(#clip0_2_47)">
<path d="M4.55 5.85C4.9075 5.85 5.2 6.1425 5.2 6.5V9.1C5.2 9.4575 4.9075 9.75 4.55 9.75C4.1925 9.75 3.9 9.4575 3.9 9.1V6.5C3.9 6.1425 4.1925 5.85 4.55 5.85ZM8.45 5.85C8.8075 5.85 9.1 6.1425 9.1 6.5V9.1C9.1 9.4575 8.8075 9.75 8.45 9.75C8.0925 9.75 7.8 9.4575 7.8 9.1V6.5C7.8 6.1425 8.0925 5.85 8.45 5.85ZM10.4 11.05C10.4 11.4075 10.1075 11.7 9.75 11.7H3.25C2.8925 11.7 2.6 11.4075 2.6 11.05V3.9H10.4V11.05ZM5.2 1.5145C5.2 1.4105 5.3365 1.3 5.525 1.3H7.475C7.6635 1.3 7.8 1.4105 7.8 1.5145V2.6H5.2V1.5145ZM12.35 2.6H11.7H9.1V1.5145C9.1 0.676 8.372 0 7.475 0H5.525C4.628 0 3.9 0.676 3.9 1.5145V2.6H1.3H0.65C0.2925 2.6 0 2.8925 0 3.25C0 3.6075 0.2925 3.9 0.65 3.9H1.3V11.05C1.3 12.1225 2.1775 13 3.25 13H9.75C10.8225 13 11.7 12.1225 11.7 11.05V3.9H12.35C12.7075 3.9 13 3.6075 13 3.25C13 2.8925 12.7075 2.6 12.35 2.6Z" fill="#FF5A70"/>
</g>
<defs>
<clipPath id="clip0_2_47">
<rect width="13" height="13" fill="white"/>
</clipPath>
</defs>
</svg>
